<?xml version="1.0"?>
<svg xmlns="http://www.w3.org/2000/svg" viewBox="0 0 64 64" width="512" height="512"><g id="Computer_tablet_smartphone" data-name="Computer tablet smartphone"><rect x="3" y="3" width="58" height="40" rx="2" style="fill:#006df0"/><rect x="6" y="6" width="52" height="29" style="fill:#c2dff6"/><polygon points="29 55 42 55 37 43 29 43 29 55" style="fill:#ffcd00"/><path d="M58,31.13A3.657,3.657,0,0,0,57,31H55v2a1,1,0,0,1-1,1H50a1,1,0,0,1-1-1V31H47a4,4,0,0,0-4,4V57a4,4,0,0,0,4,4H57a4,4,0,0,0,4-4V35A3.992,3.992,0,0,0,58,31.13Z" style="fill:#ff3051"/><path d="M49,33a1,1,0,0,0,1,1h4a1,1,0,0,0,1-1V31H49Z" style="fill:#ffcd00"/><polygon points="6 6 6 34.922 35.717 6 6 6" style="fill:#d1e7f8"/><path d="M25,23H21v2a2.006,2.006,0,0,1-2,2H13a2.006,2.006,0,0,1-2-2V23H7a3.657,3.657,0,0,0-1,.13A3.992,3.992,0,0,0,3,27V57a4,4,0,0,0,4,4H25a4,4,0,0,0,4-4V27A4,4,0,0,0,25,23Z" style="fill:#7ed63e"/><path d="M11,25a2.006,2.006,0,0,0,2,2h6a2.006,2.006,0,0,0,2-2V23H11Z" style="fill:#ffcd00"/><path d="M58,31.13A3.657,3.657,0,0,0,57,31H55v2a1,1,0,0,1-1,1H50a1,1,0,0,1-1-1V31H47a4,4,0,0,0-4,4V49L59.821,32.179A3.956,3.956,0,0,0,58,31.13Z" style="fill:#ff4764"/><path d="M25,23H21v2a2.006,2.006,0,0,1-2,2H13a2.006,2.006,0,0,1-2-2V23H7a3.657,3.657,0,0,0-1,.13A3.992,3.992,0,0,0,3,27V48L27.281,23.719A3.977,3.977,0,0,0,25,23Z" style="fill:#8cdb53"/><rect x="31" y="18" width="2" height="2" style="fill:#f1f2f2"/><rect x="27" y="18" width="2" height="2" style="fill:#f1f2f2"/><rect x="35" y="18" width="2" height="2" style="fill:#f1f2f2"/><rect x="11" y="56" width="2" height="2" style="fill:#f1f2f2"/><rect x="15" y="56" width="2" height="2" style="fill:#f1f2f2"/><rect x="19" y="56" width="2" height="2" style="fill:#f1f2f2"/><rect x="51" y="56" width="2" height="2" style="fill:#f1f2f2"/><rect x="55" y="56" width="2" height="2" style="fill:#f1f2f2"/><rect x="47" y="56" width="2" height="2" style="fill:#f1f2f2"/><rect x="29" y="54" width="14" height="2" style="fill:#ebbf00"/></g></svg>
