<?xml version="1.0" encoding="UTF-8"?>
<svg xmlns="http://www.w3.org/2000/svg" xmlns:xlink="http://www.w3.org/1999/xlink" width="68pt" height="68pt" viewBox="0 0 68 68" version="1.1">
<g id="surface1">
<path style=" stroke:none;fill-rule:nonzero;fill:rgb(50.196078%,84.705882%,100%);fill-opacity:1;" d="M 19.902344 26.144531 C 20.046875 27.234375 20.554688 28.214844 20.992188 29.207031 C 21.269531 29.832031 21.753906 30.3125 22.453125 30.496094 C 22.707031 30.566406 22.691406 30.761719 22.726562 30.933594 C 22.992188 32.285156 23.390625 33.585938 24.105469 34.773438 C 25.085938 36.414062 26.410156 37.710938 27.960938 38.789062 C 29.082031 39.5625 30.191406 40.378906 31.484375 40.886719 C 32.019531 41.097656 32.597656 41.152344 33.144531 41.324219 L 35 41.324219 C 35.507812 41.167969 36.046875 41.132812 36.558594 40.964844 C 37.890625 40.507812 39.003906 39.679688 40.148438 38.902344 C 41.820312 37.761719 43.261719 36.386719 44.269531 34.597656 C 44.804688 33.644531 45.171875 32.652344 45.246094 31.558594 C 45.253906 31.421875 45.292969 31.292969 45.292969 31.15625 C 45.300781 30.742188 45.484375 30.523438 45.886719 30.339844 C 46.714844 29.96875 47.082031 29.191406 47.355469 28.363281 C 47.613281 27.59375 47.972656 26.859375 48.15625 26.058594 L 48.15625 24.929688 C 48.0625 24.582031 47.996094 24.222656 47.878906 23.882812 C 47.667969 23.28125 47.328125 22.765625 46.742188 22.472656 C 46.539062 22.371094 46.546875 22.222656 46.53125 22.046875 C 46.476562 21.019531 46.695312 20.011719 46.8125 19 C 47.117188 16.257812 46.683594 13.648438 45.566406 11.136719 C 45.28125 10.492188 44.886719 9.878906 44.8125 9.152344 C 44.792969 8.957031 44.664062 8.878906 44.484375 8.867188 C 43.980469 8.828125 43.710938 8.511719 43.539062 8.078125 C 43.480469 7.921875 43.40625 7.757812 43.5625 7.636719 C 43.777344 7.464844 43.636719 7.398438 43.484375 7.351562 C 43.0625 7.214844 42.636719 7.234375 42.207031 7.304688 C 41.984375 7.335938 41.886719 7.28125 41.859375 7.058594 C 41.804688 6.671875 41.691406 6.296875 41.542969 5.941406 C 41.464844 5.765625 41.398438 5.699219 41.152344 5.746094 C 40.417969 5.894531 39.683594 5.867188 38.984375 5.570312 C 38.578125 5.390625 38.332031 5.050781 38.183594 4.652344 C 37.910156 3.902344 37.480469 3.351562 36.625 3.269531 C 36.425781 3.25 36.40625 3.121094 36.414062 2.953125 C 36.421875 2.507812 36.414062 2.074219 36.414062 1.570312 C 35.992188 1.769531 35.699219 2.03125 35.332031 2.15625 C 34.824219 2.324219 34.671875 2.222656 34.652344 1.691406 C 34.632812 1.101562 34.828125 0.5625 35.054688 -0.0117188 C 33.9375 0.109375 33.230469 0.671875 32.859375 1.726562 C 32.550781 1.109375 32.925781 0.667969 33.144531 0.144531 C 32.101562 0.476562 31.320312 1.089844 30.667969 1.875 C 30.273438 2.351562 29.921875 2.863281 29.546875 3.351562 C 29.472656 3.453125 29.421875 3.632812 29.265625 3.605469 C 29.125 3.582031 29.082031 3.421875 29.035156 3.296875 C 28.976562 3.148438 28.949219 2.992188 28.898438 2.808594 C 28.574219 2.917969 28.425781 3.203125 28.261719 3.46875 C 27.933594 4 27.730469 4.582031 27.464844 5.140625 C 27.144531 5.828125 26.875 5.882812 26.269531 5.417969 C 26.226562 5.386719 26.1875 5.351562 26.144531 5.3125 C 25.691406 4.890625 25.691406 4.890625 25.277344 5.351562 C 24.515625 6.203125 23.984375 7.203125 23.472656 8.207031 C 23.179688 8.777344 22.8125 9.273438 22.34375 9.710938 C 21.949219 10.070312 21.570312 10.453125 21.167969 10.832031 C 21.378906 10.988281 21.5625 10.925781 21.726562 10.953125 C 22.132812 11.03125 22.214844 11.144531 22.066406 11.527344 C 21.765625 12.273438 21.359375 12.972656 20.984375 13.6875 C 20.921875 13.804688 20.863281 13.925781 20.789062 14.070312 C 20.976562 14.101562 21.09375 13.960938 21.242188 13.945312 C 21.34375 13.933594 21.460938 13.863281 21.550781 13.960938 C 21.652344 14.0625 21.554688 14.15625 21.523438 14.253906 C 21.167969 15.210938 20.816406 16.164062 20.460938 17.109375 C 20.527344 17.191406 20.589844 17.15625 20.652344 17.128906 C 21.210938 16.925781 21.222656 16.925781 21.1875 17.503906 C 21.085938 19.085938 21.046875 20.671875 21.175781 22.257812 C 21.1875 22.378906 21.175781 22.480469 21.058594 22.574219 C 19.890625 23.507812 19.71875 24.785156 19.902344 26.144531 Z M 21.316406 23.921875 L 21.425781 23.941406 C 21.535156 24.492188 21.652344 25.042969 21.761719 25.601562 C 21.828125 25.960938 22.460938 26.328125 22.800781 26.1875 C 22.96875 26.117188 22.890625 25.949219 22.875 25.832031 C 22.792969 24.921875 22.785156 24.011719 22.753906 23.09375 C 22.707031 21.734375 22.996094 20.425781 23.28125 19.109375 C 23.675781 17.300781 23.984375 15.46875 24.570312 13.703125 C 24.71875 13.238281 24.914062 12.804688 25.113281 12.363281 C 25.589844 11.300781 26.453125 10.867188 27.554688 10.8125 C 28.621094 10.757812 29.6875 10.886719 30.707031 11.160156 C 32.089844 11.527344 33.410156 11.410156 34.746094 11.015625 C 35.835938 10.691406 36.953125 10.554688 38.085938 10.53125 C 39.339844 10.511719 40.234375 11.089844 40.957031 12.042969 C 41.765625 13.105469 42.222656 14.339844 42.675781 15.578125 C 43.039062 16.542969 43.390625 17.523438 43.894531 18.429688 C 43.960938 18.558594 44.023438 18.699219 44.125 18.800781 C 44.886719 19.5625 44.933594 20.554688 44.988281 21.535156 C 45.050781 22.8125 45.0625 24.09375 45.035156 25.371094 C 45.03125 25.539062 44.953125 25.792969 45.273438 25.757812 C 45.527344 25.730469 45.894531 25.933594 45.933594 25.433594 C 45.980469 24.910156 46.054688 24.390625 46.132812 23.875 C 46.144531 23.757812 46.125 23.597656 46.253906 23.5625 C 46.371094 23.535156 46.472656 23.664062 46.539062 23.757812 C 46.988281 24.398438 47.105469 25.132812 46.996094 25.875 C 46.84375 26.90625 46.347656 27.832031 45.925781 28.769531 C 45.714844 29.238281 45.320312 29.566406 44.722656 29.421875 C 44.492188 29.371094 44.492188 29.554688 44.453125 29.683594 C 44.300781 30.210938 44.21875 30.757812 44.171875 31.308594 C 44.050781 32.761719 43.4375 34.027344 42.554688 35.148438 C 40.921875 37.214844 38.847656 38.792969 36.449219 39.785156 C 34.484375 40.601562 32.410156 40.453125 30.546875 39.214844 C 29.316406 38.398438 28.070312 37.597656 26.976562 36.589844 C 25.199219 34.953125 24.152344 32.925781 23.757812 30.550781 C 23.726562 30.367188 23.683594 30.183594 23.644531 30 C 23.570312 29.640625 23.527344 29.316406 22.984375 29.449219 C 22.664062 29.53125 22.324219 29.308594 22.179688 29.007812 C 21.617188 27.832031 20.921875 26.683594 20.945312 25.316406 C 20.957031 24.828125 21.054688 24.34375 21.316406 23.921875 Z M 61.144531 54.894531 C 60.988281 52.148438 60.261719 49.851562 57.664062 48.496094 C 56.929688 48.117188 56.179688 47.730469 55.414062 47.417969 C 52.421875 46.207031 49.421875 45.03125 46.429688 43.839844 C 45.007812 43.273438 44.90625 43.324219 44.511719 44.796875 C 42.621094 51.898438 40.730469 58.996094 38.847656 66.097656 C 38.753906 66.464844 38.71875 66.851562 38.394531 67.246094 C 38.3125 66.910156 38.238281 66.679688 38.210938 66.449219 C 37.789062 62.898438 37.332031 59.355469 36.972656 55.800781 C 36.664062 52.761719 35.78125 49.703125 37.085938 46.675781 C 37.3125 46.152344 36.910156 46.132812 36.53125 46.132812 C 34.964844 46.136719 33.402344 46.171875 31.835938 46.117188 C 31 46.089844 30.703125 46.246094 31.027344 47.144531 C 31.625 48.789062 31.808594 50.484375 31.457031 52.246094 C 31.171875 53.671875 31.074219 55.132812 30.898438 56.582031 C 30.457031 60.117188 30.023438 63.65625 29.578125 67.199219 L 29.382812 67.199219 C 29.328125 67.042969 29.253906 66.890625 29.210938 66.734375 C 27.273438 59.472656 25.328125 52.203125 23.398438 44.941406 C 22.992188 43.398438 22.8125 43.308594 21.3125 43.90625 C 18.378906 45.070312 15.449219 46.234375 12.519531 47.402344 C 11.1875 47.933594 9.949219 48.625 8.867188 49.570312 C 7.8125 50.496094 7.097656 51.589844 6.96875 53.039062 C 6.617188 56.910156 6.203125 60.777344 5.867188 64.65625 C 5.671875 66.980469 6.691406 68.011719 9.003906 68.007812 C 15.570312 68 22.140625 68 28.710938 68 C 38.863281 68 49.007812 68.007812 59.160156 68 C 61.171875 68 62.320312 66.734375 62.117188 64.851562 C 61.769531 61.53125 61.335938 58.222656 61.144531 54.894531 Z M 61.144531 54.894531 "/>
</g>
</svg>
