<?xml version="1.0" encoding="UTF-8"?>
<svg xmlns="http://www.w3.org/2000/svg" xmlns:xlink="http://www.w3.org/1999/xlink" width="8pt" height="8pt" viewBox="0 0 8 8" version="1.1">
<g id="surface1">
<path style=" stroke:none;fill-rule:nonzero;fill:rgb(2.352941%,11.764706%,21.568627%);fill-opacity:1;" d="M 7.640625 0.519531 C 7.28125 0.324219 6.878906 0.699219 6.644531 0.921875 C 6.101562 1.449219 5.644531 2.058594 5.132812 2.613281 C 4.5625 3.226562 4.035156 3.835938 3.453125 4.429688 C 3.121094 4.765625 2.761719 5.125 2.539062 5.539062 C 2.039062 5.054688 1.609375 4.527344 1.054688 4.097656 C 0.652344 3.792969 -0.0117188 3.570312 0 4.304688 C 0.0273438 5.261719 0.875 6.289062 1.5 6.941406 C 1.761719 7.21875 2.109375 7.511719 2.511719 7.523438 C 2.996094 7.550781 3.496094 6.96875 3.785156 6.652344 C 4.300781 6.097656 4.714844 5.472656 5.1875 4.902344 C 5.796875 4.152344 6.421875 3.417969 7.019531 2.65625 C 7.394531 2.183594 8.570312 1.019531 7.640625 0.519531 Z M 0.609375 4.25 C 0.597656 4.25 0.582031 4.25 0.554688 4.265625 C 0.5 4.25 0.457031 4.238281 0.402344 4.210938 C 0.445312 4.183594 0.511719 4.195312 0.609375 4.25 Z M 0.609375 4.25 "/>
</g>
</svg>
