<?xml version="1.0" encoding="UTF-8"?>
<svg xmlns="http://www.w3.org/2000/svg" xmlns:xlink="http://www.w3.org/1999/xlink" width="68pt" height="68pt" viewBox="0 0 68 68" version="1.1">
<g id="surface1">
<path style=" stroke:none;fill-rule:nonzero;fill:rgb(70.196078%,53.333333%,100%);fill-opacity:1;" d="M 19.027344 14.476562 L 20.71875 14.476562 C 22.019531 14.476562 23.074219 13.226562 23.074219 11.6875 L 23.074219 7.042969 C 23.074219 5.5 22.019531 4.257812 20.71875 4.257812 L 19.027344 4.257812 C 17.726562 4.257812 16.679688 5.507812 16.679688 7.042969 L 16.679688 11.6875 C 16.671875 13.226562 17.726562 14.476562 19.027344 14.476562 Z M 46.335938 14.476562 L 48.027344 14.476562 C 49.328125 14.476562 50.382812 13.226562 50.382812 11.6875 L 50.382812 7.042969 C 50.382812 5.5 49.328125 4.257812 48.027344 4.257812 L 46.335938 4.257812 C 45.035156 4.257812 43.988281 5.507812 43.988281 7.042969 L 43.988281 11.6875 C 43.980469 13.226562 45.035156 14.476562 46.335938 14.476562 Z M 55.554688 9.363281 L 53.164062 9.363281 L 53.164062 11.6875 C 53.164062 14.761719 50.855469 17.265625 48.027344 17.265625 L 46.335938 17.265625 C 43.507812 17.265625 41.203125 14.761719 41.203125 11.6875 L 41.203125 9.363281 L 25.855469 9.363281 L 25.855469 11.6875 C 25.855469 14.761719 23.546875 17.265625 20.71875 17.265625 L 19.027344 17.265625 C 16.191406 17.265625 13.890625 14.761719 13.890625 11.6875 L 13.890625 9.363281 L 12.429688 9.363281 C 8.460938 9.363281 5.234375 12.578125 5.234375 16.558594 L 5.234375 56.5625 C 5.234375 60.535156 8.453125 63.75 12.429688 63.75 L 55.570312 63.75 C 59.539062 63.75 62.765625 60.535156 62.765625 56.5625 L 62.765625 16.550781 C 62.75 12.578125 59.527344 9.363281 55.554688 9.363281 Z M 59.371094 55.945312 C 59.371094 57.941406 57.746094 59.566406 55.746094 59.566406 L 12.234375 59.566406 C 10.234375 59.566406 8.601562 57.941406 8.601562 55.945312 L 8.601562 23.308594 L 59.363281 23.308594 Z M 17.257812 35.714844 L 50.726562 35.714844 C 51.753906 35.714844 52.585938 34.394531 52.585938 32.769531 C 52.585938 31.136719 51.753906 29.816406 50.726562 29.816406 L 17.257812 29.816406 C 16.230469 29.816406 15.394531 31.136719 15.394531 32.761719 C 15.394531 34.394531 16.226562 35.714844 17.257812 35.714844 Z M 17.257812 45.015625 L 50.726562 45.015625 C 51.753906 45.015625 52.585938 43.703125 52.585938 42.070312 C 52.585938 40.441406 51.753906 39.121094 50.726562 39.121094 L 17.257812 39.121094 C 16.230469 39.121094 15.394531 40.441406 15.394531 42.070312 C 15.394531 43.703125 16.226562 45.015625 17.257812 45.015625 Z M 17.257812 54.304688 L 37.476562 54.304688 C 38.5 54.304688 39.339844 52.984375 39.339844 51.359375 C 39.339844 49.726562 38.507812 48.410156 37.476562 48.410156 L 17.257812 48.410156 C 16.230469 48.410156 15.394531 49.726562 15.394531 51.355469 C 15.394531 52.984375 16.226562 54.304688 17.257812 54.304688 Z M 17.257812 54.304688 "/>
</g>
</svg>
