<?xml version="1.0" encoding="UTF-8"?>
<svg xmlns="http://www.w3.org/2000/svg" xmlns:xlink="http://www.w3.org/1999/xlink" width="68pt" height="68pt" viewBox="0 0 68 68" version="1.1">
<g id="surface1">
<path style=" stroke:none;fill-rule:nonzero;fill:rgb(91.764706%,50.196078%,98.823529%);fill-opacity:1;" d="M 62.417969 58.335938 C 60.457031 53.304688 58.535156 48.257812 56.625 43.207031 C 56.425781 42.683594 56.121094 42.335938 55.65625 42.085938 C 52.925781 40.574219 50.019531 39.472656 47.035156 38.625 C 45.0625 38.066406 44.371094 38.460938 43.261719 40.195312 C 42.066406 42.066406 40.757812 43.859375 39.707031 45.796875 C 38.691406 47.675781 37.453125 48.675781 35.203125 48.300781 C 34.367188 48.164062 33.84375 47.980469 33.394531 47.234375 C 31.78125 44.628906 30.082031 42.078125 28.445312 39.488281 C 28.015625 38.808594 27.539062 38.507812 26.695312 38.507812 C 24.085938 38.5 21.863281 39.757812 19.53125 40.628906 C 18.191406 41.132812 16.828125 41.664062 15.597656 42.804688 C 17.007812 43.261719 17.863281 44.160156 18.046875 45.546875 C 18.183594 46.621094 18.945312 47.363281 19.3125 48.308594 C 19.46875 48.707031 19.761719 48.714844 20.148438 48.605469 C 21.605469 48.171875 22.9375 48.578125 24.175781 49.308594 C 30.328125 52.945312 36.46875 56.617188 42.621094 60.261719 C 43.410156 60.730469 44.085938 61.308594 44.402344 62.191406 C 44.585938 62.714844 44.90625 62.757812 45.382812 62.703125 C 50.933594 62.085938 56.417969 61.179688 61.777344 59.5625 C 62.503906 59.328125 62.710938 59.105469 62.417969 58.335938 Z M 23.453125 23.371094 C 24.59375 23.296875 25.929688 23.023438 26.859375 23.488281 C 29.578125 24.828125 32.441406 24.914062 35.324219 24.984375 C 38.183594 25.050781 41.070312 25.066406 43.785156 24.09375 C 45.003906 23.65625 46.144531 23.324219 47.4375 23.34375 C 50.285156 23.386719 50.511719 23.078125 50.101562 20.195312 L 50.089844 20.074219 C 50.035156 19.644531 49.832031 19.296875 49.375 19.339844 C 48.621094 19.414062 48.605469 18.972656 48.566406 18.40625 C 48.253906 14.464844 46.667969 11.117188 43.730469 8.433594 C 42.664062 7.453125 41.097656 7.019531 40.574219 5.441406 C 40.5 5.222656 40.195312 4.917969 39.847656 5.078125 C 39.570312 5.207031 39.683594 5.527344 39.664062 5.765625 C 39.480469 7.839844 39.296875 9.929688 39.132812 12.003906 C 39.078125 12.738281 38.945312 13.484375 38.078125 13.472656 C 37.054688 13.457031 37.121094 12.585938 37.148438 11.851562 C 37.222656 9.722656 37.238281 7.589844 37.398438 5.46875 C 37.496094 4.132812 36.632812 4.472656 35.925781 4.421875 C 35.15625 4.367188 34.652344 4.421875 34.707031 5.46875 C 34.84375 7.765625 34.835938 10.0625 34.890625 12.363281 C 34.90625 12.921875 34.746094 13.421875 34.09375 13.464844 C 33.4375 13.503906 33.074219 13.105469 33.019531 12.464844 L 32.753906 9.535156 C 32.621094 8.023438 32.476562 6.507812 32.335938 4.929688 C 31.375 5.5 31.335938 5.488281 31.023438 6.242188 C 30.863281 6.628906 30.640625 6.859375 30.300781 7.078125 C 26.058594 9.683594 23.941406 13.574219 23.5625 18.460938 C 23.519531 19.007812 23.488281 19.375 22.8125 19.332031 C 22.203125 19.292969 22.011719 19.691406 22.019531 20.238281 C 22.023438 20.789062 22.058594 21.351562 22.003906 21.894531 C 21.910156 22.96875 22.296875 23.445312 23.453125 23.371094 Z M 39.601562 20.183594 C 40.046875 16.6875 40.480469 13.199219 40.949219 9.457031 C 44.300781 11.925781 45.792969 15.007812 46.070312 18.773438 C 46.109375 19.378906 45.804688 19.597656 45.316406 19.746094 C 43.640625 20.257812 41.9375 20.535156 40.195312 20.707031 C 39.746094 20.738281 39.542969 20.664062 39.601562 20.183594 Z M 31.210938 9.691406 C 31.648438 13.15625 32.082031 16.59375 32.523438 20.027344 C 32.597656 20.582031 32.4375 20.761719 31.832031 20.6875 C 30.183594 20.488281 28.546875 20.277344 26.960938 19.769531 C 26.582031 19.644531 26.152344 19.597656 26.105469 19.011719 C 25.875 16.109375 28.171875 11.015625 31.210938 9.691406 Z M 41.621094 62.554688 C 41.453125 62.425781 41.261719 62.328125 41.078125 62.214844 C 35.378906 58.71875 29.710938 55.183594 23.894531 51.882812 C 21.15625 50.332031 20.707031 50.488281 19.453125 53.296875 C 19.058594 54.175781 19.066406 54.589844 20.136719 54.890625 C 22.546875 55.5625 24.921875 56.371094 27.316406 57.132812 C 27.75 57.269531 28.390625 57.378906 28.261719 57.941406 C 28.089844 58.671875 27.480469 58.359375 26.996094 58.207031 C 24.4375 57.417969 21.890625 56.597656 19.304688 55.894531 C 18.121094 55.578125 17.617188 54.808594 17.449219 53.742188 C 17.347656 53.121094 17.386719 52.46875 17.429688 51.828125 C 17.503906 50.605469 17.339844 49.414062 16.621094 48.421875 C 16.070312 47.667969 15.449219 47.035156 15.597656 45.96875 C 15.679688 45.398438 15.074219 45.269531 14.640625 45.109375 L 8.996094 43.132812 C 6.671875 42.308594 6.203125 42.554688 5.554688 44.980469 C 5.425781 45.472656 5.425781 45.988281 5.371094 46.492188 C 5.277344 47.328125 5.691406 47.734375 6.492188 47.890625 C 8.664062 48.3125 10.824219 48.777344 12.996094 49.191406 C 13.707031 49.328125 14.449219 49.695312 15.035156 48.78125 C 15.347656 48.292969 15.621094 48.859375 15.78125 49.074219 C 16.4375 49.9375 16.539062 50.953125 16.429688 51.992188 C 16.273438 53.570312 16.460938 55.066406 17.597656 56.289062 C 17.980469 56.699219 17.851562 57.019531 17.652344 57.417969 C 17.054688 58.683594 16.503906 59.984375 15.890625 61.246094 C 15.46875 62.117188 15.714844 62.714844 16.515625 63.164062 C 17.441406 63.675781 18.433594 63.839844 19.46875 63.839844 L 29.960938 63.839844 L 29.960938 63.898438 L 38.140625 63.898438 C 39.167969 63.898438 40.1875 63.925781 41.214844 63.894531 C 41.527344 63.886719 41.957031 63.921875 42.09375 63.503906 C 42.226562 63.070312 41.929688 62.792969 41.621094 62.554688 Z M 5.941406 45.289062 C 6.34375 43.222656 6.726562 42.855469 8.023438 43.214844 C 6.855469 43.378906 6.527344 44.253906 5.941406 45.289062 Z M 24.703125 25.003906 C 23.914062 25.121094 22.644531 24.363281 22.582031 25.996094 C 22.515625 27.785156 23.023438 29.429688 24.5 30.503906 C 25.25 31.046875 25.621094 31.675781 25.933594 32.476562 C 27.769531 37.195312 31.6875 40.09375 36.113281 40.085938 C 37.09375 40.050781 38.058594 39.964844 38.996094 39.636719 C 42.695312 38.351562 44.925781 35.652344 46.316406 32.128906 C 46.511719 31.625 46.601562 31.128906 47.171875 30.804688 C 48.660156 29.953125 49.292969 28.53125 49.484375 26.894531 C 49.679688 25.242188 49.464844 25.023438 47.824219 24.960938 C 47.035156 24.9375 46.628906 24.988281 46.796875 26.03125 C 46.980469 27.152344 46.972656 28.382812 45.273438 28.558594 C 44.648438 28.628906 44.382812 29.261719 44.242188 29.886719 C 43.980469 31.007812 43.546875 32.0625 42.976562 33.074219 C 40.726562 37.027344 36.515625 38.535156 32.769531 36.632812 C 30.082031 35.273438 28.65625 32.890625 27.914062 30.070312 C 27.742188 29.429688 27.601562 28.660156 26.886719 28.59375 C 25.222656 28.425781 25.25 27.296875 25.25 26.105469 C 25.277344 25.636719 25.773438 24.855469 24.703125 25.003906 Z M 13.914062 52.5625 C 13.933594 52.011719 13.714844 51.773438 13.191406 51.761719 C 12.769531 51.746094 12.292969 51.40625 12.042969 52.121094 C 11.28125 54.285156 10.472656 56.425781 9.664062 58.574219 C 9.535156 58.9375 9.4375 59.222656 9.929688 59.363281 C 10.941406 59.671875 11.953125 59.988281 12.695312 60.222656 C 13.789062 60.316406 15.230469 57.527344 14.796875 56.625 C 14.183594 55.332031 13.859375 53.992188 13.914062 52.5625 Z M 13.914062 52.5625 "/>
</g>
</svg>
