<?xml version="1.0" encoding="iso-8859-1"?>
<!-- Generator: Adobe Illustrator 21.0.0, SVG Export Plug-In . SVG Version: 6.00 Build 0)  -->
<svg version="1.1" id="Capa_1" xmlns="http://www.w3.org/2000/svg" xmlns:xlink="http://www.w3.org/1999/xlink" x="0px" y="0px"
	 viewBox="0 0 597.829 597.829" style="enable-background:new 0 0 597.829 597.829;" xml:space="preserve">
<g>
	<g>
		<g id="flat_6_">
			<path style="fill:#87CED9;" d="M121.592,0h445.839c16.79,0,30.398,13.608,30.398,30.398v374.91
				c0,16.79-13.608,30.398-30.398,30.398H121.592c-16.79,0-30.398-13.608-30.398-30.398V30.398C91.194,13.608,104.803,0,121.592,0z"
				/>
			<path style="fill:#71C4D1;" d="M253.317,435.706h314.114c16.79,0,30.398-13.608,30.398-30.398V91.194L253.317,435.706z"/>
			<path style="fill:#5EB3D1;" d="M314.114,435.706h-30.398V314.114l0,0c16.79,0,30.398,13.608,30.398,30.398V435.706z"/>
			<rect x="121.592" y="30.398" style="fill:#5EB3D1;" width="20.265" height="20.265"/>
			<rect x="162.123" y="30.398" style="fill:#5EB3D1;" width="20.265" height="20.265"/>
			<rect x="202.654" y="30.398" style="fill:#5EB3D1;" width="20.265" height="20.265"/>
			<rect x="121.592" y="70.929" style="fill:#5EB3D1;" width="445.839" height="20.265"/>
			<rect x="476.237" y="273.583" style="fill:#5EB3D1;" width="91.194" height="20.265"/>
			<rect x="303.981" y="324.246" style="fill:#5EB3D1;" width="182.389" height="20.265"/>
			<rect x="415.441" y="172.256" style="fill:#5EB3D1;" width="111.46" height="20.265"/>
			<rect x="415.441" y="121.592" style="fill:#5EB3D1;" width="81.062" height="20.265"/>
			<rect x="516.768" y="121.592" style="fill:#5EB3D1;" width="50.663" height="20.265"/>
			<rect x="547.166" y="172.256" style="fill:#5EB3D1;" width="20.265" height="20.265"/>
			<rect x="415.441" y="222.919" style="fill:#5EB3D1;" width="151.99" height="20.265"/>
			<rect x="364.777" y="273.583" style="fill:#5EB3D1;" width="91.194" height="20.265"/>
			<rect x="303.981" y="374.91" style="fill:#5EB3D1;" width="81.062" height="20.265"/>
			<path style="fill:#E34B87;" d="M334.379,263.45h-20.265v-20.265h20.265c5.593,0,10.133-4.539,10.133-10.133v-20.265
				c0-2.685,1.064-5.269,2.969-7.164l13.102-13.102l-13.102-13.102c-1.905-1.895-2.969-4.479-2.969-7.164V151.99
				c0-5.593-4.539-10.133-10.133-10.133h-20.265v-20.265h20.265c16.79,0,30.398,13.608,30.398,30.398v16.07l17.297,17.297
				c3.952,3.952,3.952,10.376,0,14.328l-17.297,17.297v16.07C364.777,249.842,351.169,263.45,334.379,263.45z"/>
			<path style="fill:#E34B87;" d="M212.787,263.45h-20.265c-16.79,0-30.398-13.608-30.398-30.398v-16.07l-17.297-17.297
				c-3.952-3.952-3.952-10.376,0-14.328l17.297-17.297v-16.07c0-16.79,13.608-30.398,30.398-30.398h20.265v20.265h-20.265
				c-5.593,0-10.133,4.539-10.133,10.133v20.265c0,2.685-1.064,5.269-2.969,7.164l-13.102,13.102l13.102,13.102
				c1.905,1.895,2.969,4.479,2.969,7.164v20.265c0,5.593,4.539,10.133,10.133,10.133h20.265V263.45z"/>
			<rect x="212.787" y="202.654" style="fill:#E34B87;" width="20.265" height="20.265"/>
			<rect x="253.317" y="202.654" style="fill:#E34B87;" width="20.265" height="20.265"/>
			<rect x="293.848" y="202.654" style="fill:#E34B87;" width="20.265" height="20.265"/>
			<path style="fill:#E34B87;" d="M30.398,293.848h222.919c11.197,0,20.265,9.069,20.265,20.265v253.317
				c0,11.197-9.069,20.265-20.265,20.265H30.398c-11.197,0-20.265-9.069-20.265-20.265V314.114
				C10.133,302.917,19.201,293.848,30.398,293.848z"/>
			<path style="fill:#D94881;" d="M253.317,293.848h-25.332L10.133,511.701v55.73c0,11.197,9.069,20.265,20.265,20.265h222.919
				c11.197,0,20.265-9.069,20.265-20.265V314.114C273.583,302.917,264.514,293.848,253.317,293.848z"/>
			<path style="fill:#BF3D75;" d="M253.317,283.716H30.398C13.608,283.716,0,297.324,0,314.114v253.317
				c0,16.79,13.608,30.398,30.398,30.398h222.919c16.79,0,30.398-13.608,30.398-30.398V314.114
				C283.716,297.324,270.107,283.716,253.317,283.716z M30.398,303.981h222.919c5.593,0,10.133,4.539,10.133,10.133v50.663H20.265
				v-50.663C20.265,308.52,24.805,303.981,30.398,303.981z M20.265,567.431V385.043h60.796v192.521H30.398
				C24.805,577.564,20.265,573.024,20.265,567.431z M253.317,577.564h-151.99V385.043H263.45v182.389
				C263.45,573.024,258.911,577.564,253.317,577.564z"/>
			<path style="fill:#C1C7C9;" d="M354.644,506.635h202.654c22.383,0,40.531,18.148,40.531,40.531l0,0
				c0,22.383-18.148,40.531-40.531,40.531H354.644l0,0V506.635L354.644,506.635z"/>
			<rect x="385.043" y="537.033" style="fill:#FDA72F;" width="20.265" height="20.265"/>
			<rect x="466.104" y="537.033" style="fill:#E34B87;" width="20.265" height="20.265"/>
			<path style="fill:#D0D4D6;" d="M442.363,374.91L585.66,518.206c15.827,15.827,15.827,41.493,0,57.321l0,0
				c-15.827,15.827-41.493,15.827-57.321,0L385.043,432.231l0,0L442.363,374.91L442.363,374.91z"/>
			
				<rect x="429.764" y="418.204" transform="matrix(0.7071 -0.7071 0.7071 0.7071 -174.0369 436.5108)" style="fill:#87CED9;" width="20.265" height="20.265"/>
			
				<rect x="487.085" y="475.515" transform="matrix(0.7071 -0.7071 0.7071 0.7071 -197.7734 493.8289)" style="fill:#5EB3D1;" width="20.265" height="20.265"/>
			<path style="fill:#DADDDF;" d="M597.829,344.512v202.654c0,22.383-18.148,40.531-40.531,40.531l0,0
				c-22.383,0-40.531-18.148-40.531-40.531V344.512l0,0H597.829L597.829,344.512z"/>
			<rect x="547.166" y="537.033" style="fill:#C1C7C9;" width="20.265" height="20.265"/>
			<rect x="547.166" y="374.91" style="fill:#E34B87;" width="20.265" height="20.265"/>
			<rect x="547.166" y="455.971" style="fill:#BF3D75;" width="20.265" height="20.265"/>
		</g>
	</g>
</g>
<g>
</g>
<g>
</g>
<g>
</g>
<g>
</g>
<g>
</g>
<g>
</g>
<g>
</g>
<g>
</g>
<g>
</g>
<g>
</g>
<g>
</g>
<g>
</g>
<g>
</g>
<g>
</g>
<g>
</g>
</svg>
